<svg width="614" height="90" viewBox="0 0 614 90" fill="none" xmlns="http://www.w3.org/2000/svg">
<path d="M18.26 35.855C15.32 35.855 12.755 35.375 10.565 34.415C8.375 33.425 6.56 32.105 5.12 30.455C3.71 28.805 2.66 26.975 1.97 24.965C1.28 22.955 0.935 20.945 0.935 18.935V17.945C0.935 15.875 1.28 13.85 1.97 11.87C2.66 9.89 3.695 8.09 5.075 6.47C6.485 4.85 8.225 3.56 10.295 2.6C12.395 1.64 14.81 1.16 17.54 1.16C20.51 1.16 23.135 1.715 25.415 2.825C27.695 3.905 29.525 5.42 30.905 7.37C32.285 9.29 33.08 11.525 33.29 14.075H25.91C25.73 12.875 25.25 11.825 24.47 10.925C23.72 10.025 22.745 9.32 21.545 8.81C20.375 8.3 19.04 8.045 17.54 8.045C16.1 8.045 14.81 8.3 13.67 8.81C12.56 9.32 11.6 10.04 10.79 10.97C10.01 11.9 9.41 13.01 8.99 14.3C8.6 15.56 8.405 16.955 8.405 18.485C8.405 20.075 8.615 21.53 9.035 22.85C9.485 24.14 10.13 25.265 10.97 26.225C11.81 27.155 12.845 27.875 14.075 28.385C15.335 28.895 16.73 29.15 18.26 29.15C20.3 29.15 22.07 28.73 23.57 27.89C25.07 27.05 26.15 25.94 26.81 24.56L25.91 29.6V21.77H32.705V28.79C31.295 31.07 29.345 32.825 26.855 34.055C24.395 35.255 21.53 35.855 18.26 35.855ZM17.315 23.21V17.9H35.405V23.21H17.315ZM53.3154 35.855C51.2154 35.855 49.3554 35.495 47.7354 34.775C46.1454 34.055 44.8104 33.095 43.7304 31.895C42.6804 30.665 41.8704 29.3 41.3004 27.8C40.7604 26.27 40.4904 24.71 40.4904 23.12V22.22C40.4904 20.57 40.7604 18.995 41.3004 17.495C41.8704 15.965 42.6804 14.6 43.7304 13.4C44.7804 12.2 46.0854 11.255 47.6454 10.565C49.2354 9.845 51.0354 9.485 53.0454 9.485C55.6854 9.485 57.9054 10.085 59.7054 11.285C61.5354 12.455 62.9304 14 63.8904 15.92C64.8504 17.81 65.3304 19.88 65.3304 22.13V24.56H43.5054V20.465H60.9654L58.6254 22.355C58.6254 20.885 58.4154 19.625 57.9954 18.575C57.5754 17.525 56.9454 16.73 56.1054 16.19C55.2954 15.62 54.2754 15.335 53.0454 15.335C51.7854 15.335 50.7204 15.62 49.8504 16.19C48.9804 16.76 48.3204 17.6 47.8704 18.71C47.4204 19.79 47.1954 21.125 47.1954 22.715C47.1954 24.185 47.4054 25.475 47.8254 26.585C48.2454 27.665 48.9054 28.505 49.8054 29.105C50.7054 29.705 51.8754 30.005 53.3154 30.005C54.6354 30.005 55.7154 29.75 56.5554 29.24C57.3954 28.73 57.9654 28.1 58.2654 27.35H64.8804C64.5204 29 63.8154 30.47 62.7654 31.76C61.7154 33.05 60.3954 34.055 58.8054 34.775C57.2154 35.495 55.3854 35.855 53.3154 35.855ZM83.5564 35.315C81.0664 35.315 79.0564 35.015 77.5264 34.415C75.9964 33.785 74.8714 32.75 74.1514 31.31C73.4614 29.84 73.1164 27.86 73.1164 25.37V3.68H79.8214V25.64C79.8214 26.81 80.1214 27.71 80.7214 28.34C81.3514 28.94 82.2364 29.24 83.3764 29.24H87.0214V35.315H83.5564ZM69.3814 15.605V10.34H87.0214V15.605H69.3814ZM103.111 35L113.956 2.15H125.881L137.131 35H129.481L120.391 7.235L122.731 8.18H116.926L119.356 7.235L110.491 35H103.111ZM111.346 26.855L113.596 20.735H126.466L128.761 26.855H111.346ZM153.936 35.855C151.806 35.855 149.946 35.51 148.356 34.82C146.796 34.1 145.491 33.14 144.441 31.94C143.391 30.74 142.611 29.39 142.101 27.89C141.591 26.36 141.336 24.785 141.336 23.165V22.31C141.336 20.63 141.606 19.025 142.146 17.495C142.686 15.935 143.481 14.555 144.531 13.355C145.581 12.155 146.886 11.21 148.446 10.52C150.036 9.83 151.851 9.485 153.891 9.485C156.111 9.485 158.076 9.92 159.786 10.79C161.496 11.63 162.861 12.815 163.881 14.345C164.901 15.875 165.471 17.63 165.591 19.61H158.526C158.406 18.5 157.956 17.57 157.176 16.82C156.426 16.04 155.331 15.65 153.891 15.65C152.691 15.65 151.686 15.95 150.876 16.55C150.096 17.15 149.511 17.975 149.121 19.025C148.731 20.075 148.536 21.32 148.536 22.76C148.536 24.08 148.716 25.28 149.076 26.36C149.436 27.41 150.006 28.235 150.786 28.835C151.596 29.405 152.646 29.69 153.936 29.69C154.896 29.69 155.706 29.525 156.366 29.195C157.056 28.835 157.596 28.355 157.986 27.755C158.406 27.125 158.661 26.405 158.751 25.595H165.771C165.681 27.635 165.111 29.435 164.061 30.995C163.011 32.525 161.616 33.725 159.876 34.595C158.136 35.435 156.156 35.855 153.936 35.855ZM183.696 35.855C181.566 35.855 179.706 35.51 178.116 34.82C176.556 34.1 175.251 33.14 174.201 31.94C173.151 30.74 172.371 29.39 171.861 27.89C171.351 26.36 171.096 24.785 171.096 23.165V22.31C171.096 20.63 171.366 19.025 171.906 17.495C172.446 15.935 173.241 14.555 174.291 13.355C175.341 12.155 176.646 11.21 178.206 10.52C179.796 9.83 181.611 9.485 183.651 9.485C185.871 9.485 187.836 9.92 189.546 10.79C191.256 11.63 192.621 12.815 193.641 14.345C194.661 15.875 195.231 17.63 195.351 19.61H188.286C188.166 18.5 187.716 17.57 186.936 16.82C186.186 16.04 185.091 15.65 183.651 15.65C182.451 15.65 181.446 15.95 180.636 16.55C179.856 17.15 179.271 17.975 178.881 19.025C178.491 20.075 178.296 21.32 178.296 22.76C178.296 24.08 178.476 25.28 178.836 26.36C179.196 27.41 179.766 28.235 180.546 28.835C181.356 29.405 182.406 29.69 183.696 29.69C184.656 29.69 185.466 29.525 186.126 29.195C186.816 28.835 187.356 28.355 187.746 27.755C188.166 27.125 188.421 26.405 188.511 25.595H195.531C195.441 27.635 194.871 29.435 193.821 30.995C192.771 32.525 191.376 33.725 189.636 34.595C187.896 35.435 185.916 35.855 183.696 35.855ZM213.681 35.855C211.581 35.855 209.721 35.495 208.101 34.775C206.511 34.055 205.176 33.095 204.096 31.895C203.046 30.665 202.236 29.3 201.666 27.8C201.126 26.27 200.856 24.71 200.856 23.12V22.22C200.856 20.57 201.126 18.995 201.666 17.495C202.236 15.965 203.046 14.6 204.096 13.4C205.146 12.2 206.451 11.255 208.011 10.565C209.601 9.845 211.401 9.485 213.411 9.485C216.051 9.485 218.271 10.085 220.071 11.285C221.901 12.455 223.296 14 224.256 15.92C225.216 17.81 225.696 19.88 225.696 22.13V24.56H203.871V20.465H221.331L218.991 22.355C218.991 20.885 218.781 19.625 218.361 18.575C217.941 17.525 217.311 16.73 216.471 16.19C215.661 15.62 214.641 15.335 213.411 15.335C212.151 15.335 211.086 15.62 210.216 16.19C209.346 16.76 208.686 17.6 208.236 18.71C207.786 19.79 207.561 21.125 207.561 22.715C207.561 24.185 207.771 25.475 208.191 26.585C208.611 27.665 209.271 28.505 210.171 29.105C211.071 29.705 212.241 30.005 213.681 30.005C215.001 30.005 216.081 29.75 216.921 29.24C217.761 28.73 218.331 28.1 218.631 27.35H225.246C224.886 29 224.181 30.47 223.131 31.76C222.081 33.05 220.761 34.055 219.171 34.775C217.581 35.495 215.751 35.855 213.681 35.855ZM242.077 35.765C238.567 35.765 235.822 35.045 233.842 33.605C231.862 32.165 230.812 30.14 230.692 27.53H237.082C237.202 28.31 237.667 29.015 238.477 29.645C239.317 30.245 240.562 30.545 242.212 30.545C243.472 30.545 244.507 30.335 245.317 29.915C246.157 29.465 246.577 28.835 246.577 28.025C246.577 27.305 246.262 26.735 245.632 26.315C245.002 25.865 243.877 25.55 242.257 25.37L240.322 25.19C237.352 24.89 235.117 24.065 233.617 22.715C232.147 21.365 231.412 19.64 231.412 17.54C231.412 15.8 231.847 14.345 232.717 13.175C233.587 12.005 234.787 11.12 236.317 10.52C237.877 9.92 239.647 9.62 241.627 9.62C244.807 9.62 247.372 10.325 249.322 11.735C251.272 13.115 252.292 15.125 252.382 17.765H245.992C245.872 16.955 245.452 16.28 244.732 15.74C244.012 15.17 242.947 14.885 241.537 14.885C240.427 14.885 239.542 15.095 238.882 15.515C238.222 15.935 237.892 16.505 237.892 17.225C237.892 17.915 238.177 18.44 238.747 18.8C239.317 19.16 240.247 19.415 241.537 19.565L243.472 19.745C246.502 20.075 248.857 20.915 250.537 22.265C252.217 23.615 253.057 25.43 253.057 27.71C253.057 29.36 252.607 30.8 251.707 32.03C250.807 33.23 249.532 34.16 247.882 34.82C246.232 35.45 244.297 35.765 242.077 35.765ZM269.332 35.765C265.822 35.765 263.077 35.045 261.097 33.605C259.117 32.165 258.067 30.14 257.947 27.53H264.337C264.457 28.31 264.922 29.015 265.732 29.645C266.572 30.245 267.817 30.545 269.467 30.545C270.727 30.545 271.762 30.335 272.572 29.915C273.412 29.465 273.832 28.835 273.832 28.025C273.832 27.305 273.517 26.735 272.887 26.315C272.257 25.865 271.132 25.55 269.512 25.37L267.577 25.19C264.607 24.89 262.372 24.065 260.872 22.715C259.402 21.365 258.667 19.64 258.667 17.54C258.667 15.8 259.102 14.345 259.972 13.175C260.842 12.005 262.042 11.12 263.572 10.52C265.132 9.92 266.902 9.62 268.882 9.62C272.062 9.62 274.627 10.325 276.577 11.735C278.527 13.115 279.547 15.125 279.637 17.765H273.247C273.127 16.955 272.707 16.28 271.987 15.74C271.267 15.17 270.202 14.885 268.792 14.885C267.682 14.885 266.797 15.095 266.137 15.515C265.477 15.935 265.147 16.505 265.147 17.225C265.147 17.915 265.432 18.44 266.002 18.8C266.572 19.16 267.502 19.415 268.792 19.565L270.727 19.745C273.757 20.075 276.112 20.915 277.792 22.265C279.472 23.615 280.312 25.43 280.312 27.71C280.312 29.36 279.862 30.8 278.962 32.03C278.062 33.23 276.787 34.16 275.137 34.82C273.487 35.45 271.552 35.765 269.332 35.765ZM305.855 35V7.685H313.235V35H305.855ZM296.63 8.585V2.15H322.505V8.585H296.63ZM337.887 35.855C335.727 35.855 333.807 35.525 332.127 34.865C330.447 34.175 329.022 33.245 327.852 32.075C326.712 30.905 325.842 29.57 325.242 28.07C324.642 26.54 324.342 24.935 324.342 23.255V22.22C324.342 20.51 324.642 18.89 325.242 17.36C325.872 15.8 326.772 14.435 327.942 13.265C329.142 12.095 330.582 11.18 332.262 10.52C333.942 9.83 335.817 9.485 337.887 9.485C340.017 9.485 341.907 9.83 343.557 10.52C345.237 11.18 346.662 12.095 347.832 13.265C349.002 14.435 349.902 15.8 350.532 17.36C351.162 18.89 351.477 20.51 351.477 22.22V23.255C351.477 24.935 351.177 26.54 350.577 28.07C349.977 29.57 349.092 30.905 347.922 32.075C346.782 33.245 345.372 34.175 343.692 34.865C342.012 35.525 340.077 35.855 337.887 35.855ZM337.887 29.78C339.297 29.78 340.467 29.48 341.397 28.88C342.327 28.28 343.032 27.44 343.512 26.36C344.022 25.28 344.277 24.08 344.277 22.76C344.277 21.35 344.022 20.12 343.512 19.07C343.002 17.99 342.267 17.135 341.307 16.505C340.377 15.875 339.237 15.56 337.887 15.56C336.567 15.56 335.427 15.875 334.467 16.505C333.507 17.135 332.772 17.99 332.262 19.07C331.782 20.12 331.542 21.35 331.542 22.76C331.542 24.08 331.782 25.28 332.262 26.36C332.742 27.44 333.462 28.28 334.422 28.88C335.382 29.48 336.537 29.78 337.887 29.78ZM384.625 35.855C381.535 35.855 378.91 35.285 376.75 34.145C374.62 32.975 373 31.325 371.89 29.195C370.78 27.065 370.225 24.545 370.225 21.635V2.15H377.605V21.905C377.605 23.345 377.875 24.605 378.415 25.685C378.985 26.735 379.78 27.545 380.8 28.115C381.85 28.685 383.125 28.97 384.625 28.97C386.155 28.97 387.43 28.685 388.45 28.115C389.5 27.545 390.295 26.735 390.835 25.685C391.375 24.635 391.645 23.375 391.645 21.905V2.15H399.025V21.635C399.025 24.545 398.47 27.065 397.36 29.195C396.25 31.325 394.63 32.975 392.5 34.145C390.37 35.285 387.745 35.855 384.625 35.855ZM407.637 35V10.34H413.352V20.915H412.947C412.947 18.395 413.262 16.295 413.892 14.615C414.552 12.935 415.542 11.675 416.862 10.835C418.182 9.995 419.787 9.575 421.677 9.575H421.992C424.872 9.575 427.062 10.52 428.562 12.41C430.092 14.27 430.857 17.105 430.857 20.915V35H423.657V20.51C423.657 19.19 423.267 18.11 422.487 17.27C421.707 16.43 420.657 16.01 419.337 16.01C417.987 16.01 416.892 16.445 416.052 17.315C415.242 18.155 414.837 19.265 414.837 20.645V35H407.637ZM439.557 35V2.15H446.802V35H439.557ZM436.632 7.46V2.15H446.802V7.46H436.632ZM456.856 35V10.34H464.056V35H456.856ZM453.571 15.65V10.34H464.056V15.65H453.571ZM459.646 7.91C458.296 7.91 457.291 7.565 456.631 6.875C456.001 6.155 455.686 5.255 455.686 4.175C455.686 3.065 456.001 2.165 456.631 1.475C457.291 0.754997 458.296 0.394998 459.646 0.394998C460.996 0.394998 461.986 0.754997 462.616 1.475C463.276 2.165 463.606 3.065 463.606 4.175C463.606 5.255 463.276 6.155 462.616 6.875C461.986 7.565 460.996 7.91 459.646 7.91ZM472.966 35V10.34H478.681V20.96H478.276C478.276 18.44 478.591 16.34 479.221 14.66C479.851 12.98 480.796 11.72 482.056 10.88C483.316 10.01 484.861 9.575 486.691 9.575H487.006C488.866 9.575 490.411 10.01 491.641 10.88C492.901 11.72 493.846 12.98 494.476 14.66C495.136 16.34 495.466 18.44 495.466 20.96H493.711C493.711 18.44 494.026 16.34 494.656 14.66C495.316 12.98 496.276 11.72 497.536 10.88C498.796 10.01 500.341 9.575 502.171 9.575H502.486C504.346 9.575 505.906 10.01 507.166 10.88C508.456 11.72 509.431 12.98 510.091 14.66C510.751 16.34 511.081 18.44 511.081 20.96V35H503.881V20.555C503.881 19.205 503.521 18.11 502.801 17.27C502.111 16.43 501.121 16.01 499.831 16.01C498.541 16.01 497.521 16.445 496.771 17.315C496.021 18.155 495.646 19.28 495.646 20.69V35H488.401V20.555C488.401 19.205 488.041 18.11 487.321 17.27C486.631 16.43 485.656 16.01 484.396 16.01C483.076 16.01 482.041 16.445 481.291 17.315C480.541 18.155 480.166 19.28 480.166 20.69V35H472.966ZM520.639 35V10.34H527.839V35H520.639ZM517.354 15.65V10.34H527.839V15.65H517.354ZM523.429 7.91C522.079 7.91 521.074 7.565 520.414 6.875C519.784 6.155 519.469 5.255 519.469 4.175C519.469 3.065 519.784 2.165 520.414 1.475C521.074 0.754997 522.079 0.394998 523.429 0.394998C524.779 0.394998 525.769 0.754997 526.399 1.475C527.059 2.165 527.389 3.065 527.389 4.175C527.389 5.255 527.059 6.155 526.399 6.875C525.769 7.565 524.779 7.91 523.429 7.91ZM547.953 35.315C545.463 35.315 543.453 35.015 541.923 34.415C540.393 33.785 539.268 32.75 538.548 31.31C537.858 29.84 537.513 27.86 537.513 25.37V3.68H544.218V25.64C544.218 26.81 544.518 27.71 545.118 28.34C545.748 28.94 546.633 29.24 547.773 29.24H551.418V35.315H547.953ZM533.778 15.605V10.34H551.418V15.605H533.778ZM569.717 35.855C567.617 35.855 565.757 35.495 564.137 34.775C562.547 34.055 561.212 33.095 560.132 31.895C559.082 30.665 558.272 29.3 557.702 27.8C557.162 26.27 556.892 24.71 556.892 23.12V22.22C556.892 20.57 557.162 18.995 557.702 17.495C558.272 15.965 559.082 14.6 560.132 13.4C561.182 12.2 562.487 11.255 564.047 10.565C565.637 9.845 567.437 9.485 569.447 9.485C572.087 9.485 574.307 10.085 576.107 11.285C577.937 12.455 579.332 14 580.292 15.92C581.252 17.81 581.732 19.88 581.732 22.13V24.56H559.907V20.465H577.367L575.027 22.355C575.027 20.885 574.817 19.625 574.397 18.575C573.977 17.525 573.347 16.73 572.507 16.19C571.697 15.62 570.677 15.335 569.447 15.335C568.187 15.335 567.122 15.62 566.252 16.19C565.382 16.76 564.722 17.6 564.272 18.71C563.822 19.79 563.597 21.125 563.597 22.715C563.597 24.185 563.807 25.475 564.227 26.585C564.647 27.665 565.307 28.505 566.207 29.105C567.107 29.705 568.277 30.005 569.717 30.005C571.037 30.005 572.117 29.75 572.957 29.24C573.797 28.73 574.367 28.1 574.667 27.35H581.282C580.922 29 580.217 30.47 579.167 31.76C578.117 33.05 576.797 34.055 575.207 34.775C573.617 35.495 571.787 35.855 569.717 35.855ZM598.923 35.81C597.183 35.81 595.593 35.495 594.153 34.865C592.743 34.235 591.513 33.365 590.463 32.255C589.413 31.115 588.603 29.78 588.033 28.25C587.493 26.72 587.223 25.07 587.223 23.3V22.265C587.223 20.495 587.478 18.845 587.988 17.315C588.528 15.785 589.293 14.45 590.283 13.31C591.303 12.14 592.518 11.24 593.928 10.61C595.338 9.95 596.913 9.62 598.653 9.62C600.633 9.62 602.343 10.055 603.783 10.925C605.223 11.765 606.348 13.025 607.158 14.705C607.968 16.355 608.418 18.395 608.508 20.825L606.618 19.07V2.15H613.863V35H608.148V24.785H609.138C609.048 27.125 608.553 29.12 607.653 30.77C606.783 32.42 605.598 33.68 604.098 34.55C602.598 35.39 600.873 35.81 598.923 35.81ZM600.723 29.78C601.833 29.78 602.838 29.54 603.738 29.06C604.668 28.55 605.403 27.815 605.943 26.855C606.513 25.895 606.798 24.74 606.798 23.39V21.725C606.798 20.405 606.513 19.295 605.943 18.395C605.373 17.495 604.623 16.805 603.693 16.325C602.763 15.845 601.758 15.605 600.678 15.605C599.478 15.605 598.398 15.92 597.438 16.55C596.508 17.15 595.773 17.99 595.233 19.07C594.693 20.12 594.423 21.35 594.423 22.76C594.423 24.2 594.693 25.445 595.233 26.495C595.773 27.545 596.523 28.355 597.483 28.925C598.443 29.495 599.523 29.78 600.723 29.78ZM2.69 89V55.88H10.07V89H2.69ZM22.625 89L12.995 74.87H21.095L31.175 89H22.625ZM8.09 78.47V72.665H16.19C17.27 72.665 18.2 72.455 18.98 72.035C19.79 71.585 20.405 70.97 20.825 70.19C21.275 69.38 21.5 68.45 21.5 67.4C21.5 66.35 21.275 65.435 20.825 64.655C20.405 63.845 19.79 63.23 18.98 62.81C18.2 62.36 17.27 62.135 16.19 62.135H8.09V55.88H15.605C18.335 55.88 20.705 56.3 22.715 57.14C24.725 57.95 26.27 59.165 27.35 60.785C28.43 62.405 28.97 64.445 28.97 66.905V67.625C28.97 70.055 28.415 72.08 27.305 73.7C26.225 75.29 24.68 76.49 22.67 77.3C20.69 78.08 18.335 78.47 15.605 78.47H8.09ZM48.2616 89.855C46.1616 89.855 44.3016 89.495 42.6816 88.775C41.0916 88.055 39.7566 87.095 38.6766 85.895C37.6266 84.665 36.8166 83.3 36.2466 81.8C35.7066 80.27 35.4366 78.71 35.4366 77.12V76.22C35.4366 74.57 35.7066 72.995 36.2466 71.495C36.8166 69.965 37.6266 68.6 38.6766 67.4C39.7266 66.2 41.0316 65.255 42.5916 64.565C44.1816 63.845 45.9816 63.485 47.9916 63.485C50.6316 63.485 52.8516 64.085 54.6516 65.285C56.4816 66.455 57.8766 68 58.8366 69.92C59.7966 71.81 60.2766 73.88 60.2766 76.13V78.56H38.4516V74.465H55.9116L53.5716 76.355C53.5716 74.885 53.3616 73.625 52.9416 72.575C52.5216 71.525 51.8916 70.73 51.0516 70.19C50.2416 69.62 49.2216 69.335 47.9916 69.335C46.7316 69.335 45.6666 69.62 44.7966 70.19C43.9266 70.76 43.2666 71.6 42.8166 72.71C42.3666 73.79 42.1416 75.125 42.1416 76.715C42.1416 78.185 42.3516 79.475 42.7716 80.585C43.1916 81.665 43.8516 82.505 44.7516 83.105C45.6516 83.705 46.8216 84.005 48.2616 84.005C49.5816 84.005 50.6616 83.75 51.5016 83.24C52.3416 82.73 52.9116 82.1 53.2116 81.35H59.8266C59.4666 83 58.7616 84.47 57.7116 85.76C56.6616 87.05 55.3416 88.055 53.7516 88.775C52.1616 89.495 50.3316 89.855 48.2616 89.855ZM76.6577 89.765C73.1477 89.765 70.4027 89.045 68.4227 87.605C66.4427 86.165 65.3927 84.14 65.2727 81.53H71.6627C71.7827 82.31 72.2477 83.015 73.0577 83.645C73.8977 84.245 75.1427 84.545 76.7927 84.545C78.0527 84.545 79.0877 84.335 79.8977 83.915C80.7377 83.465 81.1577 82.835 81.1577 82.025C81.1577 81.305 80.8427 80.735 80.2127 80.315C79.5827 79.865 78.4577 79.55 76.8377 79.37L74.9027 79.19C71.9327 78.89 69.6977 78.065 68.1977 76.715C66.7277 75.365 65.9927 73.64 65.9927 71.54C65.9927 69.8 66.4277 68.345 67.2977 67.175C68.1677 66.005 69.3677 65.12 70.8977 64.52C72.4577 63.92 74.2277 63.62 76.2077 63.62C79.3877 63.62 81.9527 64.325 83.9027 65.735C85.8527 67.115 86.8727 69.125 86.9627 71.765H80.5727C80.4527 70.955 80.0327 70.28 79.3127 69.74C78.5927 69.17 77.5277 68.885 76.1177 68.885C75.0077 68.885 74.1227 69.095 73.4627 69.515C72.8027 69.935 72.4727 70.505 72.4727 71.225C72.4727 71.915 72.7577 72.44 73.3277 72.8C73.8977 73.16 74.8277 73.415 76.1177 73.565L78.0527 73.745C81.0827 74.075 83.4377 74.915 85.1177 76.265C86.7977 77.615 87.6377 79.43 87.6377 81.71C87.6377 83.36 87.1877 84.8 86.2877 86.03C85.3877 87.23 84.1127 88.16 82.4627 88.82C80.8127 89.45 78.8777 89.765 76.6577 89.765ZM106.568 89.855C104.408 89.855 102.488 89.525 100.808 88.865C99.1276 88.175 97.7026 87.245 96.5326 86.075C95.3926 84.905 94.5226 83.57 93.9226 82.07C93.3226 80.54 93.0226 78.935 93.0226 77.255V76.22C93.0226 74.51 93.3226 72.89 93.9226 71.36C94.5526 69.8 95.4526 68.435 96.6226 67.265C97.8226 66.095 99.2626 65.18 100.943 64.52C102.623 63.83 104.498 63.485 106.568 63.485C108.698 63.485 110.588 63.83 112.238 64.52C113.918 65.18 115.343 66.095 116.513 67.265C117.683 68.435 118.583 69.8 119.213 71.36C119.843 72.89 120.158 74.51 120.158 76.22V77.255C120.158 78.935 119.858 80.54 119.258 82.07C118.658 83.57 117.773 84.905 116.603 86.075C115.463 87.245 114.053 88.175 112.373 88.865C110.693 89.525 108.758 89.855 106.568 89.855ZM106.568 83.78C107.978 83.78 109.148 83.48 110.078 82.88C111.008 82.28 111.713 81.44 112.193 80.36C112.703 79.28 112.958 78.08 112.958 76.76C112.958 75.35 112.703 74.12 112.193 73.07C111.683 71.99 110.948 71.135 109.988 70.505C109.058 69.875 107.918 69.56 106.568 69.56C105.248 69.56 104.108 69.875 103.148 70.505C102.188 71.135 101.453 71.99 100.943 73.07C100.463 74.12 100.223 75.35 100.223 76.76C100.223 78.08 100.463 79.28 100.943 80.36C101.423 81.44 102.143 82.28 103.103 82.88C104.063 83.48 105.218 83.78 106.568 83.78ZM135.757 89.765C132.907 89.765 130.717 88.85 129.187 87.02C127.657 85.16 126.892 82.37 126.892 78.65V64.34H134.092V79.01C134.092 80.33 134.467 81.38 135.217 82.16C135.967 82.94 136.972 83.33 138.232 83.33C139.522 83.33 140.572 82.925 141.382 82.115C142.192 81.305 142.597 80.21 142.597 78.83V64.34H149.797V89H144.082V78.605H144.577C144.577 81.095 144.247 83.18 143.587 84.86C142.957 86.51 142.012 87.74 140.752 88.55C139.492 89.36 137.932 89.765 136.072 89.765H135.757ZM158.686 89V64.34H164.401V74.915H164.266C164.266 71.435 165.001 68.75 166.471 66.86C167.971 64.97 170.131 64.025 172.951 64.025H173.896V70.235H172.096C170.116 70.235 168.586 70.775 167.506 71.855C166.426 72.905 165.886 74.435 165.886 76.445V89H158.686ZM189.237 89.765C185.727 89.765 182.982 89.045 181.002 87.605C179.022 86.165 177.972 84.14 177.852 81.53H184.242C184.362 82.31 184.827 83.015 185.637 83.645C186.477 84.245 187.722 84.545 189.372 84.545C190.632 84.545 191.667 84.335 192.477 83.915C193.317 83.465 193.737 82.835 193.737 82.025C193.737 81.305 193.422 80.735 192.792 80.315C192.162 79.865 191.037 79.55 189.417 79.37L187.482 79.19C184.512 78.89 182.277 78.065 180.777 76.715C179.307 75.365 178.572 73.64 178.572 71.54C178.572 69.8 179.007 68.345 179.877 67.175C180.747 66.005 181.947 65.12 183.477 64.52C185.037 63.92 186.807 63.62 188.787 63.62C191.967 63.62 194.532 64.325 196.482 65.735C198.432 67.115 199.452 69.125 199.542 71.765H193.152C193.032 70.955 192.612 70.28 191.892 69.74C191.172 69.17 190.107 68.885 188.697 68.885C187.587 68.885 186.702 69.095 186.042 69.515C185.382 69.935 185.052 70.505 185.052 71.225C185.052 71.915 185.337 72.44 185.907 72.8C186.477 73.16 187.407 73.415 188.697 73.565L190.632 73.745C193.662 74.075 196.017 74.915 197.697 76.265C199.377 77.615 200.217 79.43 200.217 81.71C200.217 83.36 199.767 84.8 198.867 86.03C197.967 87.23 196.692 88.16 195.042 88.82C193.392 89.45 191.457 89.765 189.237 89.765ZM218.427 89.855C216.327 89.855 214.467 89.495 212.847 88.775C211.257 88.055 209.922 87.095 208.842 85.895C207.792 84.665 206.982 83.3 206.412 81.8C205.872 80.27 205.602 78.71 205.602 77.12V76.22C205.602 74.57 205.872 72.995 206.412 71.495C206.982 69.965 207.792 68.6 208.842 67.4C209.892 66.2 211.197 65.255 212.757 64.565C214.347 63.845 216.147 63.485 218.157 63.485C220.797 63.485 223.017 64.085 224.817 65.285C226.647 66.455 228.042 68 229.002 69.92C229.962 71.81 230.442 73.88 230.442 76.13V78.56H208.617V74.465H226.077L223.737 76.355C223.737 74.885 223.527 73.625 223.107 72.575C222.687 71.525 222.057 70.73 221.217 70.19C220.407 69.62 219.387 69.335 218.157 69.335C216.897 69.335 215.832 69.62 214.962 70.19C214.092 70.76 213.432 71.6 212.982 72.71C212.532 73.79 212.307 75.125 212.307 76.715C212.307 78.185 212.517 79.475 212.937 80.585C213.357 81.665 214.017 82.505 214.917 83.105C215.817 83.705 216.987 84.005 218.427 84.005C219.747 84.005 220.827 83.75 221.667 83.24C222.507 82.73 223.077 82.1 223.377 81.35H229.992C229.632 83 228.927 84.47 227.877 85.76C226.827 87.05 225.507 88.055 223.917 88.775C222.327 89.495 220.497 89.855 218.427 89.855ZM246.823 89.765C243.313 89.765 240.568 89.045 238.588 87.605C236.608 86.165 235.558 84.14 235.438 81.53H241.828C241.948 82.31 242.413 83.015 243.223 83.645C244.063 84.245 245.308 84.545 246.958 84.545C248.218 84.545 249.253 84.335 250.063 83.915C250.903 83.465 251.323 82.835 251.323 82.025C251.323 81.305 251.008 80.735 250.378 80.315C249.748 79.865 248.623 79.55 247.003 79.37L245.068 79.19C242.098 78.89 239.863 78.065 238.363 76.715C236.893 75.365 236.158 73.64 236.158 71.54C236.158 69.8 236.593 68.345 237.463 67.175C238.333 66.005 239.533 65.12 241.063 64.52C242.623 63.92 244.393 63.62 246.373 63.62C249.553 63.62 252.118 64.325 254.068 65.735C256.018 67.115 257.038 69.125 257.128 71.765H250.738C250.618 70.955 250.198 70.28 249.478 69.74C248.758 69.17 247.693 68.885 246.283 68.885C245.173 68.885 244.288 69.095 243.628 69.515C242.968 69.935 242.638 70.505 242.638 71.225C242.638 71.915 242.923 72.44 243.493 72.8C244.063 73.16 244.993 73.415 246.283 73.565L248.218 73.745C251.248 74.075 253.603 74.915 255.283 76.265C256.963 77.615 257.803 79.43 257.803 81.71C257.803 83.36 257.353 84.8 256.453 86.03C255.553 87.23 254.278 88.16 252.628 88.82C250.978 89.45 249.043 89.765 246.823 89.765ZM264.898 77.885V56.15H272.278V77.885H264.898ZM264.358 89V81.755H272.818V89H264.358Z" fill="#0C2C6B"/>
</svg>
